<svg id="layer_1" enable-background="new 0 0 32 32" viewBox="0 0 32 32" fill="#141110" opacity="0.4" xmlns="http://www.w3.org/2000/svg"><path d="m29.1767578 7.1811523c-.5439453-.0996094-1.0634766.2641602-1.1611328.8076172-1.1875 6.6147461-7.5439453 11.0410156-14.1679688 9.8647461-4.9980469-.8901367-8.9619141-4.8544922-9.8632812-9.8652344-.0976562-.5429687-.6220703-.9072265-1.1611328-.8071289-.5439453.0981446-.9052734.6181641-.8076172 1.1616211.4628906 2.5709229 1.6201172 4.9038086 3.2665405 6.7990112l-2.4110718 2.411438c-.390625.390625-.390625 1.0239258 0 1.4140625.1953125.1953125.4511719.2929688.7070312.2929688s.5117188-.0976562.7070312-.2929688l2.4107666-2.4111328c1.8967896 1.6506958 4.2304688 2.8085327 6.8011475 3.2661133.5036012.0895386 1.0042115.142273 1.5029298.1771851v3.835022c0 .5522461.4472656 1 1 1s1-.4477539 1-1v-3.8365479c3.1087646-.2235107 6.0078735-1.4674072 8.2971802-3.4486694l2.4176636 2.4180298c.1953125.1953125.4511719.2929688.7070312.2929688s.5117188-.0976562.7070312-.2929688c.390625-.3901367.390625-1.0234375 0-1.4140625l-2.4107056-2.4111328c1.6318359-1.8706055 2.796936-4.1868896 3.2661743-6.7998047.0976563-.5434571-.2636718-1.0634766-.8076171-1.1611329z"/></svg>