<svg width="16" height="18" viewBox="0 0 16 18" fill="none" xmlns="http://www.w3.org/2000/svg">
<path d="M12.1666 8.16667V5.66667C12.1666 3.36548 10.3012 1.5 7.99998 1.5C5.69879 1.5 3.83331 3.36548 3.83331 5.66667V8.16667M5.33331 16.5H10.6666C12.0668 16.5 12.7668 16.5 13.3016 16.2275C13.772 15.9878 14.1545 15.6054 14.3942 15.135C14.6666 14.6002 14.6666 13.9001 14.6666 12.5V12.1667C14.6666 10.7665 14.6666 10.0665 14.3942 9.53169C14.1545 9.06128 13.772 8.67883 13.3016 8.43915C12.7668 8.16667 12.0668 8.16667 10.6666 8.16667H5.33331C3.93318 8.16667 3.23312 8.16667 2.69834 8.43915C2.22793 8.67883 1.84548 9.06128 1.6058 9.53169C1.33331 10.0665 1.33331 10.7665 1.33331 12.1667V12.5C1.33331 13.9001 1.33331 14.6002 1.6058 15.135C1.84548 15.6054 2.22793 15.9878 2.69834 16.2275C3.23312 16.5 3.93318 16.5 5.33331 16.5Z" stroke="#141110" stroke-opacity="0.4" stroke-width="1.5" stroke-linecap="round" stroke-linejoin="round"/>
</svg>
