<?xml version="1.0" encoding="UTF-8"?>
<svg id="Layer_2" data-name="Layer 2" xmlns="http://www.w3.org/2000/svg" viewBox="0 0 313.56 166.48">
  <defs>
    <style>
      .cls-1 {
        fill: #010101;
      }

      .cls-2 {
        stroke-linecap: round;
        stroke-linejoin: round;
      }

      .cls-2, .cls-3 {
        fill: none;
        stroke: #010101;
        stroke-width: .47px;
      }

      .cls-3 {
        stroke-miterlimit: 10;
      }
    </style>
  </defs>
  <g id="Layer_1-2" data-name="Layer 1">
    <g>
      <g>
        <g>
          <rect class="cls-3" x="45.35" y="35.68" width="15.78" height="1.89"/>
          <rect class="cls-3" x="45.35" y="54.98" width="15.78" height="1.89"/>
          <rect class="cls-3" x="46.2" y="37.57" width="14.09" height="17.42"/>
          <rect class="cls-3" x="47.25" y="37.57" width="12" height="17.42"/>
          <rect class="cls-3" x="48.62" y="39.59" width="9.26" height="15.39"/>
          <line class="cls-3" x1="48.62" y1="39.59" x2="48.62" y2="54.98"/>
          <line class="cls-3" x1="51.68" y1="39.59" x2="51.68" y2="54.98"/>
          <line class="cls-3" x1="54.94" y1="39.59" x2="54.94" y2="54.98"/>
          <line class="cls-3" x1="57.88" y1="43.57" x2="48.62" y2="43.57"/>
          <line class="cls-3" x1="57.88" y1="47.35" x2="48.62" y2="47.35"/>
          <line class="cls-3" x1="57.88" y1="51.07" x2="48.62" y2="51.07"/>
        </g>
        <g>
          <path class="cls-3" d="M43.75,67.52h19c0-2.9-3.06-7.32-9.3-7.32s-9.7,4.04-9.7,7.32Z"/>
          <path class="cls-3" d="M45.4,67.52c0-2.51,2.49-5.63,7.79-5.63s7.95,3.01,7.95,5.57"/>
          <path class="cls-3" d="M47.56,65.94h11.59c-1.67-2.64-8.09-4.3-11.59,0Z"/>
        </g>
      </g>
      <g>
        <g>
          <rect class="cls-3" x="83.44" y="35.68" width="15.78" height="1.89"/>
          <rect class="cls-3" x="83.44" y="54.98" width="15.78" height="1.89"/>
          <rect class="cls-3" x="84.29" y="37.57" width="14.09" height="17.42"/>
          <rect class="cls-3" x="85.33" y="37.57" width="12" height="17.42"/>
          <rect class="cls-3" x="86.7" y="39.59" width="9.26" height="15.39"/>
          <line class="cls-3" x1="86.7" y1="39.59" x2="86.7" y2="54.98"/>
          <line class="cls-3" x1="89.76" y1="39.59" x2="89.76" y2="54.98"/>
          <line class="cls-3" x1="93.03" y1="39.59" x2="93.03" y2="54.98"/>
          <line class="cls-3" x1="95.96" y1="43.57" x2="86.7" y2="43.57"/>
          <line class="cls-3" x1="95.96" y1="47.35" x2="86.7" y2="47.35"/>
          <line class="cls-3" x1="95.96" y1="51.07" x2="86.7" y2="51.07"/>
        </g>
        <g>
          <path class="cls-3" d="M81.83,67.52h19c0-2.9-3.06-7.32-9.3-7.32s-9.7,4.04-9.7,7.32Z"/>
          <path class="cls-3" d="M83.49,67.52c0-2.51,2.49-5.63,7.79-5.63s7.95,3.01,7.95,5.57"/>
          <path class="cls-3" d="M85.64,65.94h11.59c-1.67-2.64-8.09-4.3-11.59,0Z"/>
        </g>
      </g>
      <g>
        <g>
          <rect class="cls-3" x="119.18" y="35.68" width="15.78" height="1.89"/>
          <rect class="cls-3" x="119.18" y="54.98" width="15.78" height="1.89"/>
          <rect class="cls-3" x="120.03" y="37.57" width="14.09" height="17.42"/>
          <rect class="cls-3" x="121.07" y="37.57" width="12" height="17.42"/>
          <rect class="cls-3" x="122.44" y="39.59" width="9.26" height="15.39"/>
          <line class="cls-3" x1="122.44" y1="39.59" x2="122.44" y2="54.98"/>
          <line class="cls-3" x1="125.51" y1="39.59" x2="125.51" y2="54.98"/>
          <line class="cls-3" x1="128.77" y1="39.59" x2="128.77" y2="54.98"/>
          <line class="cls-3" x1="131.7" y1="43.57" x2="122.44" y2="43.57"/>
          <line class="cls-3" x1="131.7" y1="47.35" x2="122.44" y2="47.35"/>
          <line class="cls-3" x1="131.7" y1="51.07" x2="122.44" y2="51.07"/>
        </g>
        <g>
          <path class="cls-3" d="M117.57,67.52h19c0-2.9-3.06-7.32-9.3-7.32s-9.7,4.04-9.7,7.32Z"/>
          <path class="cls-3" d="M119.23,67.52c0-2.51,2.49-5.63,7.79-5.63s7.95,3.01,7.95,5.57"/>
          <path class="cls-3" d="M121.38,65.94h11.59c-1.67-2.64-8.09-4.3-11.59,0Z"/>
        </g>
      </g>
      <g>
        <g>
          <rect class="cls-3" x="153.75" y="35.68" width="15.78" height="1.89"/>
          <rect class="cls-3" x="153.75" y="54.98" width="15.78" height="1.89"/>
          <rect class="cls-3" x="154.6" y="37.57" width="14.09" height="17.42"/>
          <rect class="cls-3" x="155.65" y="37.57" width="12" height="17.42"/>
          <rect class="cls-3" x="157.01" y="39.59" width="9.26" height="15.39"/>
          <line class="cls-3" x1="157.01" y1="39.59" x2="157.01" y2="54.98"/>
          <line class="cls-3" x1="160.08" y1="39.59" x2="160.08" y2="54.98"/>
          <line class="cls-3" x1="163.34" y1="39.59" x2="163.34" y2="54.98"/>
          <line class="cls-3" x1="166.28" y1="43.57" x2="157.01" y2="43.57"/>
          <line class="cls-3" x1="166.28" y1="47.35" x2="157.01" y2="47.35"/>
          <line class="cls-3" x1="166.28" y1="51.07" x2="157.01" y2="51.07"/>
        </g>
        <g>
          <path class="cls-3" d="M152.15,67.52h19c0-2.9-3.06-7.32-9.3-7.32s-9.7,4.04-9.7,7.32Z"/>
          <path class="cls-3" d="M153.8,67.52c0-2.51,2.49-5.63,7.79-5.63s7.95,3.01,7.95,5.57"/>
          <path class="cls-3" d="M155.96,65.94h11.59c-1.67-2.64-8.09-4.3-11.59,0Z"/>
        </g>
      </g>
      <g>
        <g>
          <rect class="cls-3" x="189.45" y="35.68" width="15.78" height="1.89"/>
          <rect class="cls-3" x="189.45" y="54.98" width="15.78" height="1.89"/>
          <rect class="cls-3" x="190.3" y="37.57" width="14.09" height="17.42"/>
          <rect class="cls-3" x="191.34" y="37.57" width="12" height="17.42"/>
          <rect class="cls-3" x="192.71" y="39.59" width="9.26" height="15.39"/>
          <line class="cls-3" x1="192.71" y1="39.59" x2="192.71" y2="54.98"/>
          <line class="cls-3" x1="195.78" y1="39.59" x2="195.78" y2="54.98"/>
          <line class="cls-3" x1="199.04" y1="39.59" x2="199.04" y2="54.98"/>
          <line class="cls-3" x1="201.97" y1="43.57" x2="192.71" y2="43.57"/>
          <line class="cls-3" x1="201.97" y1="47.35" x2="192.71" y2="47.35"/>
          <line class="cls-3" x1="201.97" y1="51.07" x2="192.71" y2="51.07"/>
        </g>
        <g>
          <path class="cls-3" d="M187.84,67.52h19c0-2.9-3.06-7.32-9.3-7.32s-9.7,4.04-9.7,7.32Z"/>
          <path class="cls-3" d="M189.5,67.52c0-2.51,2.49-5.63,7.79-5.63s7.95,3.01,7.95,5.57"/>
          <path class="cls-3" d="M191.65,65.94h11.59c-1.67-2.64-8.09-4.3-11.59,0Z"/>
        </g>
      </g>
      <g>
        <g>
          <rect class="cls-3" x="226.45" y="35.68" width="15.78" height="1.89"/>
          <rect class="cls-3" x="226.45" y="54.98" width="15.78" height="1.89"/>
          <rect class="cls-3" x="227.3" y="37.57" width="14.09" height="17.42"/>
          <rect class="cls-3" x="228.35" y="37.57" width="12" height="17.42"/>
          <rect class="cls-3" x="229.71" y="39.59" width="9.26" height="15.39"/>
          <line class="cls-3" x1="229.71" y1="39.59" x2="229.71" y2="54.98"/>
          <line class="cls-3" x1="232.78" y1="39.59" x2="232.78" y2="54.98"/>
          <line class="cls-3" x1="236.04" y1="39.59" x2="236.04" y2="54.98"/>
          <line class="cls-3" x1="238.98" y1="43.57" x2="229.71" y2="43.57"/>
          <line class="cls-3" x1="238.98" y1="47.35" x2="229.71" y2="47.35"/>
          <line class="cls-3" x1="238.98" y1="51.07" x2="229.71" y2="51.07"/>
        </g>
        <g>
          <path class="cls-3" d="M224.85,67.52h19c0-2.9-3.06-7.32-9.3-7.32s-9.7,4.04-9.7,7.32Z"/>
          <path class="cls-3" d="M226.5,67.52c0-2.51,2.49-5.63,7.79-5.63s7.95,3.01,7.95,5.57"/>
          <path class="cls-3" d="M228.66,65.94h11.59c-1.67-2.64-8.09-4.3-11.59,0Z"/>
        </g>
      </g>
      <g>
        <g>
          <rect class="cls-3" x="264.22" y="35.68" width="15.78" height="1.89"/>
          <rect class="cls-3" x="264.22" y="54.98" width="15.78" height="1.89"/>
          <rect class="cls-3" x="265.07" y="37.57" width="14.09" height="17.42"/>
          <rect class="cls-3" x="266.11" y="37.57" width="12" height="17.42"/>
          <rect class="cls-3" x="267.48" y="39.59" width="9.26" height="15.39"/>
          <line class="cls-3" x1="267.48" y1="39.59" x2="267.48" y2="54.98"/>
          <line class="cls-3" x1="270.55" y1="39.59" x2="270.55" y2="54.98"/>
          <line class="cls-3" x1="273.81" y1="39.59" x2="273.81" y2="54.98"/>
          <line class="cls-3" x1="276.74" y1="43.57" x2="267.48" y2="43.57"/>
          <line class="cls-3" x1="276.74" y1="47.35" x2="267.48" y2="47.35"/>
          <line class="cls-3" x1="276.74" y1="51.07" x2="267.48" y2="51.07"/>
        </g>
        <g>
          <path class="cls-3" d="M262.61,67.52h19c0-2.9-3.06-7.32-9.3-7.32s-9.7,4.04-9.7,7.32Z"/>
          <path class="cls-3" d="M264.27,67.52c0-2.51,2.49-5.63,7.79-5.63s7.95,3.01,7.95,5.57"/>
          <path class="cls-3" d="M266.42,65.94h11.59c-1.67-2.64-8.09-4.3-11.59,0Z"/>
        </g>
      </g>
      <polyline class="cls-3" points="28.02 70.19 28.02 23.29 296.75 22.38 296.75 78.63"/>
      <line class="cls-3" x1="282.46" y1="96.47" x2="42.62" y2="96.47"/>
      <line class="cls-3" x1="28.02" y1="27.82" x2="296.75" y2="27.82"/>
      <line class="cls-3" x1="28.02" y1="33.43" x2="296.75" y2="33.43"/>
      <line class="cls-3" x1="44.86" y1="100.15" x2="278.91" y2="100.15"/>
      <line class="cls-3" x1="50.81" y1="137.12" x2="269.66" y2="137.12"/>
      <line class="cls-3" x1="47.32" y1="141.77" x2="267.01" y2="141.77"/>
      <line class="cls-3" x1="183.58" y1="127.06" x2="272.89" y2="127.06"/>
      <polyline class="cls-3" points="221.74 23.43 161.84 .25 101.94 23.43"/>
      <g>
        <path class="cls-3" d="M213.7,23.29L161.84,3.23s-39.79,15.39-51.85,20.06"/>
        <path class="cls-3" d="M117.85,23.29c17.16-6.64,43.99-17.02,43.99-17.02l43.99,17.02"/>
        <path class="cls-3" d="M205.84,23.29L161.84,6.27s-26.83,10.38-43.99,17.02"/>
      </g>
      <g>
        <polyline class="cls-3" points="124.3 14.78 31.64 14.78 31.64 23.37"/>
        <line class="cls-3" x1="37.17" y1="14.78" x2="37.17" y2="23.37"/>
        <line class="cls-3" x1="70.03" y1="14.78" x2="70.03" y2="23.37"/>
        <line class="cls-3" x1="75.58" y1="14.78" x2="75.58" y2="23.37"/>
        <path class="cls-3" d="M39.24,23.29v-2.67c0-1.1-.92-1.99-2.05-1.99h0"/>
        <path class="cls-3" d="M43.34,23.29v-2.67c0-1.1-.92-1.99-2.05-1.99h0c-1.13,0-2.05,.89-2.05,1.99v2.67"/>
        <path class="cls-3" d="M47.44,23.29v-2.67c0-1.1-.92-1.99-2.05-1.99h0c-1.13,0-2.05,.89-2.05,1.99v2.67"/>
        <path class="cls-3" d="M51.54,23.29v-2.67c0-1.1-.92-1.99-2.05-1.99h0c-1.13,0-2.05,.89-2.05,1.99v2.67"/>
        <path class="cls-3" d="M55.64,23.29v-2.67c0-1.1-.92-1.99-2.05-1.99h0c-1.13,0-2.05,.89-2.05,1.99v2.67"/>
        <path class="cls-3" d="M59.74,23.29v-2.67c0-1.1-.92-1.99-2.05-1.99h0c-1.13,0-2.05,.89-2.05,1.99v2.67"/>
        <path class="cls-3" d="M63.84,23.29v-2.67c0-1.1-.92-1.99-2.05-1.99h0c-1.13,0-2.05,.89-2.05,1.99v2.67"/>
        <path class="cls-3" d="M67.94,23.29v-2.67c0-1.1-.92-1.99-2.05-1.99h0c-1.13,0-2.05,.89-2.05,1.99v2.67"/>
        <path class="cls-3" d="M69.98,18.63h0c-1.13,0-2.05,.89-2.05,1.99v2.67"/>
        <line class="cls-3" x1="108.42" y1="14.78" x2="108.42" y2="20.96"/>
        <line class="cls-3" x1="113.9" y1="14.78" x2="113.9" y2="18.8"/>
        <path class="cls-3" d="M77.63,23.29v-2.67c0-1.1-.92-1.99-2.05-1.99h0"/>
        <path class="cls-3" d="M81.73,23.29v-2.67c0-1.1-.92-1.99-2.05-1.99h0c-1.13,0-2.05,.89-2.05,1.99v2.67"/>
        <path class="cls-3" d="M85.83,23.29v-2.67c0-1.1-.92-1.99-2.05-1.99h0c-1.13,0-2.05,.89-2.05,1.99v2.67"/>
        <path class="cls-3" d="M89.93,23.29v-2.67c0-1.1-.92-1.99-2.05-1.99h0c-1.13,0-2.05,.89-2.05,1.99v2.67"/>
        <path class="cls-3" d="M94.03,23.29v-2.67c0-1.1-.92-1.99-2.05-1.99h0c-1.13,0-2.05,.89-2.05,1.99v2.67"/>
        <path class="cls-3" d="M98.13,23.29v-2.67c0-1.1-.92-1.99-2.05-1.99h0c-1.13,0-2.05,.89-2.05,1.99v2.67"/>
        <path class="cls-3" d="M102.23,23.29v-2.67c0-1.1-.92-1.99-2.05-1.99h0c-1.13,0-2.05,.89-2.05,1.99v2.67"/>
        <path class="cls-3" d="M106.33,21.73v-1.11c0-1.1-.92-1.99-2.05-1.99h0c-1.13,0-2.05,.89-2.05,1.99v2.67"/>
        <path class="cls-3" d="M108.38,18.63h0c-1.13,0-2.05,.89-2.05,1.99v1.11"/>
      </g>
      <g>
        <polyline class="cls-3" points="199.39 14.78 293.46 14.78 293.46 23.37"/>
        <line class="cls-3" x1="287.93" y1="14.78" x2="287.93" y2="23.37"/>
        <line class="cls-3" x1="255.07" y1="14.78" x2="255.07" y2="23.37"/>
        <line class="cls-3" x1="249.51" y1="14.78" x2="249.51" y2="23.37"/>
        <path class="cls-3" d="M285.86,23.29v-2.67c0-1.1,.92-1.99,2.05-1.99h0"/>
        <path class="cls-3" d="M281.76,23.29v-2.67c0-1.1,.92-1.99,2.05-1.99h0c1.13,0,2.05,.89,2.05,1.99v2.67"/>
        <path class="cls-3" d="M277.66,23.29v-2.67c0-1.1,.92-1.99,2.05-1.99h0c1.13,0,2.05,.89,2.05,1.99v2.67"/>
        <path class="cls-3" d="M273.56,23.29v-2.67c0-1.1,.92-1.99,2.05-1.99h0c1.13,0,2.05,.89,2.05,1.99v2.67"/>
        <path class="cls-3" d="M269.46,23.29v-2.67c0-1.1,.92-1.99,2.05-1.99h0c1.13,0,2.05,.89,2.05,1.99v2.67"/>
        <path class="cls-3" d="M265.36,23.29v-2.67c0-1.1,.92-1.99,2.05-1.99h0c1.13,0,2.05,.89,2.05,1.99v2.67"/>
        <path class="cls-3" d="M261.26,23.29v-2.67c0-1.1,.92-1.99,2.05-1.99h0c1.13,0,2.05,.89,2.05,1.99v2.67"/>
        <path class="cls-3" d="M257.16,23.29v-2.67c0-1.1,.92-1.99,2.05-1.99h0c1.13,0,2.05,.89,2.05,1.99v2.67"/>
        <path class="cls-3" d="M255.11,18.63h0c1.13,0,2.05,.89,2.05,1.99v2.67"/>
        <line class="cls-3" x1="216.67" y1="14.78" x2="216.67" y2="21.47"/>
        <line class="cls-3" x1="211.19" y1="14.78" x2="211.19" y2="19.35"/>
        <path class="cls-3" d="M247.46,23.29v-2.67c0-1.1,.92-1.99,2.05-1.99h0"/>
        <path class="cls-3" d="M243.36,23.29v-2.67c0-1.1,.92-1.99,2.05-1.99h0c1.13,0,2.05,.89,2.05,1.99v2.67"/>
        <path class="cls-3" d="M239.26,23.29v-2.67c0-1.1,.92-1.99,2.05-1.99h0c1.13,0,2.05,.89,2.05,1.99v2.67"/>
        <path class="cls-3" d="M235.16,23.29v-2.67c0-1.1,.92-1.99,2.05-1.99h0c1.13,0,2.05,.89,2.05,1.99v2.67"/>
        <path class="cls-3" d="M231.06,23.29v-2.67c0-1.1,.92-1.99,2.05-1.99h0c1.13,0,2.05,.89,2.05,1.99v2.67"/>
        <path class="cls-3" d="M226.96,23.29v-2.67c0-1.1,.92-1.99,2.05-1.99h0c1.13,0,2.05,.89,2.05,1.99v2.67"/>
        <path class="cls-3" d="M222.86,23.29v-2.67c0-1.1,.92-1.99,2.05-1.99h0c1.13,0,2.05,.89,2.05,1.99v2.67"/>
        <path class="cls-3" d="M218.76,22.33v-1.7c0-1.1,.92-1.99,2.05-1.99h0c1.13,0,2.05,.89,2.05,1.99v2.67"/>
        <path class="cls-3" d="M216.71,18.63h0c1.13,0,2.05,.89,2.05,1.99v1.7"/>
      </g>
      <g>
        <polyline class="cls-3" points="70.4 41.1 70.4 33.43 72.72 33.43 72.72 41.1"/>
        <polyline class="cls-3" points="72.72 41.1 72.72 33.43 75.04 33.43 75.04 41.1"/>
        <path class="cls-3" d="M70.4,37.62c0-.64,.52-1.16,1.16-1.16h0c.64,0,1.16,.52,1.16,1.16"/>
        <path class="cls-3" d="M72.72,37.62c0-.64,.52-1.16,1.16-1.16h0c.64,0,1.16,.52,1.16,1.16"/>
        <line class="cls-3" x1="68.67" y1="33.43" x2="68.67" y2="35.87"/>
        <path class="cls-3" d="M75.04,37.4c0-.84,.68-1.53,1.53-1.53s1.53,.68,1.53,1.53c0,.77-.57,1.41-1.32,1.52v4.4h-8.11v-4.4c-.75-.1-1.32-.74-1.32-1.52,0-.84,.68-1.53,1.53-1.53s1.53,.68,1.53,1.53"/>
        <line class="cls-3" x1="76.78" y1="41.12" x2="68.67" y2="41.12"/>
        <line class="cls-3" x1="76.78" y1="33.43" x2="76.78" y2="35.87"/>
        <line class="cls-3" x1="75.58" y1="43.32" x2="75.58" y2="67.79"/>
        <line class="cls-3" x1="69.98" y1="67.79" x2="69.98" y2="43.32"/>
      </g>
      <g>
        <polyline class="cls-3" points="107.67 41.1 107.67 33.43 109.99 33.43 109.99 41.1"/>
        <polyline class="cls-3" points="109.99 41.1 109.99 33.43 112.31 33.43 112.31 41.1"/>
        <path class="cls-3" d="M107.67,37.62c0-.64,.52-1.16,1.16-1.16h0c.64,0,1.16,.52,1.16,1.16"/>
        <path class="cls-3" d="M109.99,37.62c0-.64,.52-1.16,1.16-1.16h0c.64,0,1.16,.52,1.16,1.16"/>
        <line class="cls-3" x1="105.93" y1="33.43" x2="105.93" y2="35.87"/>
        <path class="cls-3" d="M112.31,37.4c0-.84,.68-1.53,1.53-1.53s1.53,.68,1.53,1.53c0,.77-.57,1.41-1.32,1.52v4.4h-8.11v-4.4c-.75-.1-1.32-.74-1.32-1.52,0-.84,.68-1.53,1.53-1.53s1.53,.68,1.53,1.53"/>
        <line class="cls-3" x1="114.05" y1="41.12" x2="105.93" y2="41.12"/>
        <line class="cls-3" x1="114.05" y1="33.43" x2="114.05" y2="35.87"/>
        <line class="cls-3" x1="112.85" y1="43.32" x2="112.85" y2="67.79"/>
        <line class="cls-3" x1="107.25" y1="67.79" x2="107.25" y2="43.32"/>
      </g>
      <g>
        <polyline class="cls-3" points="141.6 41.1 141.6 33.43 143.93 33.43 143.93 41.1"/>
        <polyline class="cls-3" points="143.93 41.1 143.93 33.43 146.25 33.43 146.25 41.1"/>
        <path class="cls-3" d="M141.6,37.62c0-.64,.52-1.16,1.16-1.16h0c.64,0,1.16,.52,1.16,1.16"/>
        <path class="cls-3" d="M143.93,37.62c0-.64,.52-1.16,1.16-1.16h0c.64,0,1.16,.52,1.16,1.16"/>
        <line class="cls-3" x1="139.87" y1="33.43" x2="139.87" y2="35.87"/>
        <path class="cls-3" d="M146.25,37.4c0-.84,.68-1.53,1.53-1.53s1.53,.68,1.53,1.53-.57,1.41-1.32,1.52v4.4h-8.11v-4.4c-.75-.1-1.32-.74-1.32-1.52,0-.84,.68-1.53,1.53-1.53s1.53,.68,1.53,1.53"/>
        <line class="cls-3" x1="147.99" y1="41.12" x2="139.87" y2="41.12"/>
        <line class="cls-3" x1="147.99" y1="33.43" x2="147.99" y2="35.87"/>
        <line class="cls-3" x1="146.79" y1="43.32" x2="146.79" y2="67.79"/>
        <line class="cls-3" x1="141.19" y1="67.79" x2="141.19" y2="43.32"/>
      </g>
      <g>
        <polyline class="cls-3" points="177.17 41.1 177.17 33.43 179.49 33.43 179.49 41.1"/>
        <polyline class="cls-3" points="179.49 41.1 179.49 33.43 181.81 33.43 181.81 41.1"/>
        <path class="cls-3" d="M177.17,37.62c0-.64,.52-1.16,1.16-1.16h0c.64,0,1.16,.52,1.16,1.16"/>
        <path class="cls-3" d="M179.49,37.62c0-.64,.52-1.16,1.16-1.16h0c.64,0,1.16,.52,1.16,1.16"/>
        <line class="cls-3" x1="175.44" y1="33.43" x2="175.44" y2="35.87"/>
        <path class="cls-3" d="M181.81,37.4c0-.84,.68-1.53,1.53-1.53s1.53,.68,1.53,1.53c0,.77-.57,1.41-1.32,1.52v4.4h-8.11v-4.4c-.75-.1-1.32-.74-1.32-1.52,0-.84,.68-1.53,1.53-1.53s1.53,.68,1.53,1.53"/>
        <line class="cls-3" x1="183.55" y1="41.12" x2="175.44" y2="41.12"/>
        <line class="cls-3" x1="183.55" y1="33.43" x2="183.55" y2="35.87"/>
        <line class="cls-3" x1="182.35" y1="43.32" x2="182.35" y2="67.79"/>
        <line class="cls-3" x1="176.75" y1="67.79" x2="176.75" y2="43.32"/>
      </g>
      <g>
        <polyline class="cls-3" points="212.9 41.1 212.9 33.43 215.22 33.43 215.22 41.1"/>
        <polyline class="cls-3" points="215.22 41.1 215.22 33.43 217.54 33.43 217.54 41.1"/>
        <path class="cls-3" d="M212.9,37.62c0-.64,.52-1.16,1.16-1.16h0c.64,0,1.16,.52,1.16,1.16"/>
        <path class="cls-3" d="M215.22,37.62c0-.64,.52-1.16,1.16-1.16h0c.64,0,1.16,.52,1.16,1.16"/>
        <line class="cls-3" x1="211.17" y1="33.43" x2="211.17" y2="35.87"/>
        <path class="cls-3" d="M217.54,37.4c0-.84,.68-1.53,1.53-1.53s1.53,.68,1.53,1.53-.57,1.41-1.32,1.52v4.4h-8.11v-4.4c-.75-.1-1.32-.74-1.32-1.52,0-.84,.68-1.53,1.53-1.53s1.53,.68,1.53,1.53"/>
        <line class="cls-3" x1="219.28" y1="41.12" x2="211.17" y2="41.12"/>
        <line class="cls-3" x1="219.28" y1="33.43" x2="219.28" y2="35.87"/>
        <line class="cls-3" x1="218.08" y1="43.32" x2="218.08" y2="67.79"/>
        <line class="cls-3" x1="212.48" y1="67.79" x2="212.48" y2="43.32"/>
      </g>
      <g>
        <polyline class="cls-3" points="251.27 41.1 251.27 33.43 253.59 33.43 253.59 41.1"/>
        <polyline class="cls-3" points="253.59 41.1 253.59 33.43 255.91 33.43 255.91 41.1"/>
        <path class="cls-3" d="M251.27,37.62c0-.64,.52-1.16,1.16-1.16h0c.64,0,1.16,.52,1.16,1.16"/>
        <path class="cls-3" d="M253.59,37.62c0-.64,.52-1.16,1.16-1.16h0c.64,0,1.16,.52,1.16,1.16"/>
        <line class="cls-3" x1="249.54" y1="33.43" x2="249.54" y2="35.87"/>
        <path class="cls-3" d="M255.91,37.4c0-.84,.68-1.53,1.53-1.53s1.53,.68,1.53,1.53-.57,1.41-1.32,1.52v4.4h-8.11v-4.4c-.75-.1-1.32-.74-1.32-1.52,0-.84,.68-1.53,1.53-1.53s1.53,.68,1.53,1.53"/>
        <line class="cls-3" x1="257.65" y1="41.12" x2="249.54" y2="41.12"/>
        <line class="cls-3" x1="257.65" y1="33.43" x2="257.65" y2="35.87"/>
        <line class="cls-3" x1="256.45" y1="43.32" x2="256.45" y2="67.79"/>
        <line class="cls-3" x1="250.85" y1="67.79" x2="250.85" y2="43.32"/>
      </g>
      <g>
        <polyline class="cls-3" points="288.26 41.1 288.26 33.43 290.59 33.43 290.59 41.1"/>
        <polyline class="cls-3" points="290.59 41.1 290.59 33.43 292.91 33.43 292.91 41.1"/>
        <path class="cls-3" d="M288.26,37.62c0-.64,.52-1.16,1.16-1.16h0c.64,0,1.16,.52,1.16,1.16"/>
        <path class="cls-3" d="M290.59,37.62c0-.64,.52-1.16,1.16-1.16h0c.64,0,1.16,.52,1.16,1.16"/>
        <line class="cls-3" x1="286.53" y1="33.43" x2="286.53" y2="35.87"/>
        <path class="cls-3" d="M292.91,37.4c0-.84,.68-1.53,1.53-1.53s1.53,.68,1.53,1.53c0,.77-.57,1.41-1.32,1.52v4.4h-8.11v-4.4c-.75-.1-1.32-.74-1.32-1.52,0-.84,.68-1.53,1.53-1.53s1.53,.68,1.53,1.53"/>
        <line class="cls-3" x1="294.65" y1="41.12" x2="286.53" y2="41.12"/>
        <line class="cls-3" x1="294.65" y1="33.43" x2="294.65" y2="35.87"/>
        <line class="cls-3" x1="293.45" y1="43.32" x2="293.45" y2="80.72"/>
        <line class="cls-3" x1="287.85" y1="89.66" x2="287.85" y2="43.32"/>
      </g>
      <g>
        <rect class="cls-3" x="188.44" y="102.55" width="17.69" height="19.42"/>
        <rect class="cls-3" x="190.26" y="106.1" width="14.05" height="12.31" transform="translate(309.54 -85.02) rotate(90)"/>
        <rect class="cls-3" x="194.88" y="106.1" width="4.81" height="12.31" transform="translate(309.54 -85.02) rotate(90)"/>
        <rect class="cls-3" x="190.26" y="110.14" width="14.05" height="4.23" transform="translate(309.54 -85.02) rotate(90)"/>
        <line class="cls-3" x1="191.13" y1="105.24" x2="188.44" y2="102.55"/>
        <line class="cls-3" x1="203.44" y1="105.24" x2="206.13" y2="102.55"/>
        <line class="cls-3" x1="191.13" y1="119.28" x2="188.44" y2="121.97"/>
        <line class="cls-3" x1="203.44" y1="119.28" x2="206.13" y2="121.97"/>
      </g>
      <g>
        <rect class="cls-3" x="225.34" y="102.55" width="17.69" height="19.42"/>
        <rect class="cls-3" x="227.16" y="106.1" width="14.05" height="12.31" transform="translate(346.44 -121.92) rotate(90)"/>
        <rect class="cls-3" x="231.78" y="106.1" width="4.81" height="12.31" transform="translate(346.44 -121.92) rotate(90)"/>
        <rect class="cls-3" x="227.16" y="110.14" width="14.05" height="4.23" transform="translate(346.44 -121.92) rotate(90)"/>
        <line class="cls-3" x1="228.03" y1="105.24" x2="225.34" y2="102.55"/>
        <line class="cls-3" x1="240.34" y1="105.24" x2="243.03" y2="102.55"/>
        <line class="cls-3" x1="228.03" y1="119.28" x2="225.34" y2="121.97"/>
        <line class="cls-3" x1="240.34" y1="119.28" x2="243.03" y2="121.97"/>
      </g>
      <g>
        <polyline class="cls-3" points="273.75 121.97 263.39 121.97 263.39 102.55 277.29 102.55"/>
        <polyline class="cls-3" points="272.24 119.28 266.08 119.28 266.08 105.24 276.9 105.24"/>
        <polyline class="cls-3" points="272.89 114.66 266.08 114.66 266.08 109.86 274.93 109.86"/>
        <polyline class="cls-3" points="270.13 119.28 270.13 105.24 274.36 105.24 274.36 113.61"/>
        <line class="cls-3" x1="266.08" y1="105.24" x2="263.39" y2="102.55"/>
        <line class="cls-3" x1="266.08" y1="119.28" x2="263.39" y2="121.97"/>
      </g>
      <g>
        <line class="cls-3" x1="210.9" y1="127.06" x2="210.9" y2="100.15"/>
        <line class="cls-3" x1="219.17" y1="100.15" x2="219.17" y2="127.06"/>
        <line class="cls-3" x1="219.17" y1="123.92" x2="210.9" y2="123.92"/>
        <line class="cls-3" x1="219.17" y1="120.94" x2="210.9" y2="120.94"/>
        <line class="cls-3" x1="219.17" y1="117.97" x2="210.9" y2="117.97"/>
        <line class="cls-3" x1="219.17" y1="115" x2="210.9" y2="115"/>
        <line class="cls-3" x1="219.17" y1="112.03" x2="210.9" y2="112.03"/>
        <line class="cls-3" x1="219.17" y1="109.06" x2="210.9" y2="109.06"/>
        <line class="cls-3" x1="219.17" y1="106.09" x2="210.9" y2="106.09"/>
        <line class="cls-3" x1="219.17" y1="103.11" x2="210.9" y2="103.11"/>
      </g>
      <g>
        <line class="cls-3" x1="175.31" y1="137.12" x2="175.31" y2="100.15"/>
        <line class="cls-3" x1="183.58" y1="100.15" x2="183.58" y2="137.12"/>
        <line class="cls-3" x1="183.58" y1="124.7" x2="175.31" y2="124.7"/>
        <line class="cls-3" x1="183.58" y1="120.58" x2="175.31" y2="120.58"/>
        <line class="cls-3" x1="183.58" y1="116.47" x2="175.31" y2="116.47"/>
        <line class="cls-3" x1="183.58" y1="112.35" x2="175.31" y2="112.35"/>
        <line class="cls-3" x1="183.58" y1="128.81" x2="175.31" y2="128.81"/>
        <line class="cls-3" x1="183.58" y1="132.92" x2="175.31" y2="132.92"/>
        <line class="cls-3" x1="183.58" y1="108.24" x2="175.31" y2="108.24"/>
        <line class="cls-3" x1="183.58" y1="104.13" x2="175.31" y2="104.13"/>
      </g>
      <g>
        <line class="cls-3" x1="249.31" y1="127.06" x2="249.31" y2="100.15"/>
        <line class="cls-3" x1="257.58" y1="100.15" x2="257.58" y2="127.06"/>
        <line class="cls-3" x1="257.58" y1="123.92" x2="249.31" y2="123.92"/>
        <line class="cls-3" x1="257.58" y1="120.94" x2="249.31" y2="120.94"/>
        <line class="cls-3" x1="257.58" y1="117.97" x2="249.31" y2="117.97"/>
        <line class="cls-3" x1="257.58" y1="115" x2="249.31" y2="115"/>
        <line class="cls-3" x1="257.58" y1="112.03" x2="249.31" y2="112.03"/>
        <line class="cls-3" x1="257.58" y1="109.06" x2="249.31" y2="109.06"/>
        <line class="cls-3" x1="257.58" y1="106.09" x2="249.31" y2="106.09"/>
        <line class="cls-3" x1="257.58" y1="103.11" x2="249.31" y2="103.11"/>
      </g>
      <g>
        <path class="cls-2" d="M310.72,83.39c-.86-.55-1.33-.55-1.41-1.49s.39-1.96-1.57-3.37c-.55-.55-.31-1.1,.78-2.98,.24-.55-.88-.94-1.07-2.51-.5-1.18-2.24-1.14-3.48,.39-.71,1.02-.91,1.21-1.87,.3-.8-.77-3.75,.88-3.19,5.46-.92-.88-3.71-1-3.95,1.87-1.63-1.59-3.22,.13-2.59,2.63-2.51-.24-5.09,1.57-3.61,3.06s1.02,2.82-.47,2.9-5.25,.71-4.31,3.61c.47,1.25,2.05,1.2,.39,1.88-1.36,.56-2.74,1.02-1.88,2.82,.55,1.02-.16,1.65-1.18,1.57s-3.88,.77-4,2.35c-.14,1.95-1.38,5.36-.08,5.56,1.39,.22,1.96,.71,.55,.47-1.41-.24-2.66,1.49-2.66,2.43s1.26,1.65,1.11,1.96-4.8,1.75-2.67,3.29c1.7,1.23,2.19,1.88,.24,2.51-1.96,.63-1.71,2.66-.55,3.53,1.36,1.01,.86,1.41,.16,2.35s-2.04,2.43,.47,3.76c.98,.6,.78,1.49-.55,1.88s-3.76,3.45-2.51,5.25c.7,.75-2.07,1.08-.78,3.37,.31,.55-.63,.47-1.41,.78s-1.96,1.72-1.88,5.56"/>
        <path class="cls-2" d="M308.38,86.44c2.9,1.23,4.49,4.11,.64,8.08-.7,.75,1.77,.75,2.03,2.84s-2.09,2.73-2.84,3.16c1.61,1.12,2.78,3.32-1.18,4.39-1.77,.21-2.52-.27-2.03-.32s3.37,.7,3.48,2.68c.11,1.98-1.12,1.93-1.02,2.3s2.84,.64,3.05,3.16c.21,2.52-1.71,2.68-1.77,3.59-.05,.91,3.05,2.68,2.46,4.71,1.93,.59,2.36,2.94,.05,4.07,2.14-.32,2.46,1.66-.43,4.87,1.07,2.46,.64,4.6-2.57,5.35,1.66-.27,3.43,1.45,1.98,2.89,2.25,.16,2.41,1.5,2.19,3.1,1.71,.21,.8,3.48-1.66,5.89"/>
        <path class="cls-2" d="M304.41,80.72c-.97-.91-1.54-2.11-.23-2.51"/>
        <path class="cls-2" d="M300.65,83.23c-2.28,.11-4.05,1.08-3.99,3.02,.06,1.94,6.32,1.99,6.72,.11,.17-.91-1.6,0,.17,.91,1.08,.46,1.14,.74,1.48,.97,.51-1.08,0-3.02-.34-3.65"/>
        <path class="cls-2" d="M292.8,89.18c1.72,.82,2.4,2.82-.34,2.61-2.34-.21-1.65,.82-.76,1.51s1.44,3.44-1.99,2.75c-.48-.27,.34-1.58,2.27,1.1,1.44,1.92-1.17,3.23-2.34,2.82-1.17-.41-.07-.55,.89-.41s1.51,2.54-1.17,3.09"/>
        <path class="cls-2" d="M281.54,106.84c1.44-1.72,3.71,.14,.96,2.68-.76,.62-1.16,.22-.37-.35,.79-.57,2.16,.71,1.68,2.47-.4,1.1-1.08,1.43-1.44,.96-.29-.37,.65-1.58,1.88-.65s1.1,1.81,.62,2.25c-.48,.44-1.15-.09-.13-.88,1.01-.79,4.19-.71,3.26,2.2-.48,.93-1.01,1.1-.62,.66,.4-.44,3.57-2.87,1.59,4.14"/>
        <path class="cls-2" d="M304.46,100.76c-1.1-.98-1.8-2.12-.82-3.64-1.45,.2-2.55-1.53,.08-2.16-1.29,.16-2.63-.82-1.96-1.96s2.43-2.08,2.82-.55"/>
        <path class="cls-2" d="M299.8,103.89c-1.14-1.06-2.98-1.41-3.21,.12-.08,.98,.71,1.14,1.02,.59s-2-.9-3.25,.24c-1.25,1.14-.04,1.76,.47,2.19"/>
        <path class="cls-2" d="M302.11,109.03c.39,1.53-.12,2.12-.94,2s-1.76-1.18-2.59-.47c-.82,.71-.16,1.29,.51,2.19,.67,.9,.78,1.88-.51,1.88s-2.08-.27-2.82-.51-1.53,.47-.51,1.69,2.08,1.21,1.29,1.18-2.9-.12-3.37,.82,.59,1.49,1.57,1.61,1.88,1.14,.59,2.39c-1.29,1.25-1.92,.94-2.35,.63s1.1-.39,.94,.86c-.16,1.25-1.61,.27-1.33,1.33,.27,1.06,.82,1.45,2.04,1.96"/>
        <path class="cls-2" d="M277.74,121.84c-.35-1.02,.78-2.27,1.96-1.25s.94,3.1-.35,4.66c1.1-.78,2.39-.74,2.59,.24,.43,2.39-2.86,3.45-1.84,3.92s4.19-.39,4.58-1.02,1.18-.63,1.57,.47c.39,1.1,1.02,.98,2.27,.71,1.25-.27,1.02,.39,.9,1.45-.12,1.06,0,2.12,.98,1.49s1.33-1.57,1.25-.9-.47,1.21-.47,1.21"/>
        <path class="cls-2" d="M297.8,133.21c.08-2.31,.04-2.04-.47-3.13-.51-1.1-.08-1.65,.94-1.53s1.37-.12,.78-.9c-.59-.78-2.16-.94-1.41-2.19,.47-.9,3.37,.24,3.57-.27,.2-.51-1.92-.76-1.45-1.8,.47-1.04,3.52,.37,3.84-.76,.43-1.52-2.8-1.94-2.32-3.51s2.89-1.52,4.36-1.56c1.04,0,1.28-.81,1.28-.81"/>
        <path class="cls-2" d="M305.54,131.64c.15-1.73-.76-3.3-2.08-2.74s-1.93,2.03-1.07,2.59c.86,.56,1.12,1.02,0,1.47-1.12,.46-2.95,.97-.56,1.93-2.34-.2-3.2,1.07-2.08,1.88,1.12,.81,1.78-.05,2.08,.3s-1.68,1.83-1.52,3.1"/>
        <path class="cls-2" d="M242.32,144.96c8.13-1.02,12.3-.2,13.37,.2s3.25-.61,5.03-.61,1.73,.86,5.18,.2c3.46-.66,4.27,.3,5.79,1.73s1.47,.2,3.61,.15c7.88-.61,18.79,1.95,19.82,1.68,2.05-.55,1.87-2.74,4.85-2.56s4.69,.43,5.11-1.03"/>
        <path class="cls-2" d="M276.58,145.11c-.66,.56-1.73-.25-1.22-1.98,.51-1.73,1.02-3.1,2.9-2.95,1.88,.15,1.68,1.32,1.07,1.32s-.61-1.73,.36-2.39c.97-.66,2.08-1.02,2.54-.46,.46,.56-.71,.61-.51-.97s.71-4.12,3.15-4.12c1.42,0,1.12,1.12,1.52,2.08,1.37-.51,4.78-.66,3.2,2.9-.56,.61,.15-.41,2.03-.1s1.78,2.19,.97,3.3c.1-.66,1.58-1.52,2.44-.97,.86,.56,.41,2.03,.41,2.03,1.99-2.3,5.41-.76,2.16,3.55"/>
        <path class="cls-2" d="M282.86,145.57c.27-2.95,2.68-1.29,3.29-3.05"/>
        <path class="cls-2" d="M289.96,150.66c2.1-.72,5.83-.72,7.59-.57,1.77,.19,1.58-1.58,4.11-1.67,2.53-.1,4.82-.24,4.82-.24"/>
        <path class="cls-2" d="M258.44,150.14c1.99,.14,4.71-.27,5.8-.32,1.09-.05,1.04,.14,1.41,.41s1.41-.27,3.04-.27,.95,.54,1.45,.73,2.09-.63,2.49-.32c.41,.32-.68,1.13,.5,1.09s2.72-1.09,3.13-.54c.41,.54,.54,1.22,3.76,.27"/>
      </g>
      <line class="cls-3" x1="139.81" y1="127.06" x2="50.5" y2="127.06"/>
      <g>
        <polyline class="cls-3" points="36.74 41.1 36.74 33.43 34.42 33.43 34.42 41.1"/>
        <polyline class="cls-3" points="34.42 41.1 34.42 33.43 32.1 33.43 32.1 41.1"/>
        <path class="cls-3" d="M36.74,37.62c0-.64-.52-1.16-1.16-1.16h0c-.64,0-1.16,.52-1.16,1.16"/>
        <path class="cls-3" d="M34.42,37.62c0-.64-.52-1.16-1.16-1.16h0c-.64,0-1.16,.52-1.16,1.16"/>
        <line class="cls-3" x1="38.47" y1="33.43" x2="38.47" y2="35.87"/>
        <path class="cls-3" d="M32.1,37.4c0-.84-.68-1.53-1.53-1.53s-1.53,.68-1.53,1.53c0,.77,.57,1.41,1.32,1.52v4.4s8.11,0,8.11,0v-4.4c.75-.1,1.32-.74,1.32-1.52,0-.84-.68-1.53-1.53-1.53s-1.53,.68-1.53,1.53"/>
        <line class="cls-3" x1="30.36" y1="41.12" x2="38.47" y2="41.12"/>
        <line class="cls-3" x1="30.36" y1="33.43" x2="30.36" y2="35.87"/>
        <line class="cls-3" x1="31.56" y1="43.32" x2="31.56" y2="75.75"/>
        <line class="cls-3" x1="37.16" y1="85.8" x2="37.16" y2="43.32"/>
      </g>
      <g>
        <rect class="cls-3" x="118.07" y="102.55" width="17.69" height="19.42" transform="translate(253.84 224.52) rotate(-180)"/>
        <rect class="cls-3" x="119.9" y="106.1" width="14.05" height="12.31" transform="translate(239.18 -14.66) rotate(90)"/>
        <rect class="cls-3" x="124.51" y="106.1" width="4.81" height="12.31" transform="translate(239.18 -14.66) rotate(90)"/>
        <rect class="cls-3" x="119.9" y="110.14" width="14.05" height="4.23" transform="translate(239.18 -14.66) rotate(90)"/>
        <line class="cls-3" x1="133.07" y1="105.24" x2="135.76" y2="102.55"/>
        <line class="cls-3" x1="120.76" y1="105.24" x2="118.07" y2="102.55"/>
        <line class="cls-3" x1="133.07" y1="119.28" x2="135.76" y2="121.97"/>
        <line class="cls-3" x1="120.76" y1="119.28" x2="118.07" y2="121.97"/>
      </g>
      <g>
        <rect class="cls-3" x="82.43" y="102.55" width="17.69" height="19.42" transform="translate(182.56 224.52) rotate(-180)"/>
        <rect class="cls-3" x="84.26" y="106.1" width="14.05" height="12.31" transform="translate(203.54 20.98) rotate(90)"/>
        <rect class="cls-3" x="88.88" y="106.1" width="4.81" height="12.31" transform="translate(203.54 20.98) rotate(90)"/>
        <rect class="cls-3" x="84.26" y="110.14" width="14.05" height="4.23" transform="translate(203.54 20.98) rotate(90)"/>
        <line class="cls-3" x1="97.44" y1="105.24" x2="100.13" y2="102.55"/>
        <line class="cls-3" x1="85.12" y1="105.24" x2="82.43" y2="102.55"/>
        <line class="cls-3" x1="97.44" y1="119.28" x2="100.13" y2="121.97"/>
        <line class="cls-3" x1="85.12" y1="119.28" x2="82.43" y2="121.97"/>
      </g>
      <g>
        <polyline class="cls-3" points="49 121.97 62.14 121.97 62.14 102.55 45.8 102.55"/>
        <polyline class="cls-3" points="49.02 119.28 59.45 119.28 59.45 105.24 47.37 105.24 45.32 103.27"/>
        <polyline class="cls-3" points="50.19 114.66 59.45 114.66 59.45 109.86 47.37 109.86 47.37 105.33"/>
        <polyline class="cls-3" points="55.41 119.28 55.41 105.24 51.18 105.24 51.18 119.34"/>
        <line class="cls-3" x1="59.45" y1="105.24" x2="62.14" y2="102.55"/>
        <line class="cls-3" x1="59.45" y1="119.28" x2="62.14" y2="121.97"/>
      </g>
      <g>
        <line class="cls-3" x1="114.11" y1="127.06" x2="114.11" y2="100.15"/>
        <line class="cls-3" x1="105.84" y1="100.15" x2="105.84" y2="127.06"/>
        <line class="cls-3" x1="105.84" y1="123.92" x2="114.11" y2="123.92"/>
        <line class="cls-3" x1="105.84" y1="120.94" x2="114.11" y2="120.94"/>
        <line class="cls-3" x1="105.84" y1="117.97" x2="114.11" y2="117.97"/>
        <line class="cls-3" x1="105.84" y1="115" x2="114.11" y2="115"/>
        <line class="cls-3" x1="105.84" y1="112.03" x2="114.11" y2="112.03"/>
        <line class="cls-3" x1="105.84" y1="109.06" x2="114.11" y2="109.06"/>
        <line class="cls-3" x1="105.84" y1="106.09" x2="114.11" y2="106.09"/>
        <line class="cls-3" x1="105.84" y1="103.11" x2="114.11" y2="103.11"/>
      </g>
      <g>
        <line class="cls-3" x1="148.08" y1="137.12" x2="148.08" y2="100.15"/>
        <line class="cls-3" x1="139.81" y1="100.15" x2="139.81" y2="137.12"/>
        <line class="cls-3" x1="139.81" y1="124.7" x2="148.08" y2="124.7"/>
        <line class="cls-3" x1="139.81" y1="120.58" x2="148.08" y2="120.58"/>
        <line class="cls-3" x1="139.81" y1="116.47" x2="148.08" y2="116.47"/>
        <line class="cls-3" x1="139.81" y1="112.35" x2="148.08" y2="112.35"/>
        <line class="cls-3" x1="139.81" y1="128.81" x2="148.08" y2="128.81"/>
        <line class="cls-3" x1="139.81" y1="132.92" x2="148.08" y2="132.92"/>
        <line class="cls-3" x1="139.81" y1="108.24" x2="148.08" y2="108.24"/>
        <line class="cls-3" x1="139.81" y1="104.13" x2="148.08" y2="104.13"/>
      </g>
      <g>
        <line class="cls-3" x1="76.83" y1="127.06" x2="76.83" y2="100.15"/>
        <line class="cls-3" x1="68.56" y1="100.15" x2="68.56" y2="127.06"/>
        <line class="cls-3" x1="68.56" y1="123.92" x2="76.83" y2="123.92"/>
        <line class="cls-3" x1="68.56" y1="120.94" x2="76.83" y2="120.94"/>
        <line class="cls-3" x1="68.56" y1="117.97" x2="76.83" y2="117.97"/>
        <line class="cls-3" x1="68.56" y1="115" x2="76.83" y2="115"/>
        <line class="cls-3" x1="68.56" y1="112.03" x2="76.83" y2="112.03"/>
        <line class="cls-3" x1="68.56" y1="109.06" x2="76.83" y2="109.06"/>
        <line class="cls-3" x1="68.56" y1="106.09" x2="76.83" y2="106.09"/>
        <line class="cls-3" x1="68.56" y1="103.11" x2="76.83" y2="103.11"/>
      </g>
      <g>
        <path class="cls-2" d="M4.08,120.13c.95-1.21,1.4-1.97,.83-2.29-2.86-.64-.19-2.42,.13-2.93s-2.74-.45-2.8-2.23,2.29-4.07,5.86-3.12l-.95-.64c-2.23-2.93,4.2-3.5,6.3-5.54-.76-.64-.25-2.23,1.02-5.09,0,0-.64,0-2.16-.06-3.57-.51-3.44-3.18-2.04-4.9s3.25-1.34,2.55-1.02-3.25,.51-3.31-2.48c-.06-2.99,3.12-3.76,3.95-3.95s1.72,.32,.64,.57c-1.08,.25-3.37-.32-3.12-2.36,.25-2.04,1.78-3.44,6.88-2.29-1.72-4.27,3.25-2.55,5.22-2.55-3.37-2.99-.51-4.77,1.72-5.98-4.07-3.69-1.27-6.75-.19-7.77s2.29-1.53,2.8-.76c.51,.76,.25,2.93,.32,5.03,0,1.09,4.18,1.97,3.77,3.93s-1.08,1.49-1.29,1.42c.2-.27,2.37,1.02,3.05,2.44s.34,2.17,.34,2.71,.75,3.05,0,3.66c-.47,.07,.34-.34,1.36,.34,1.02,.68,3.79,2.37,3.25,3.12-.54,.75-1.83,1.15-1.02,1.36,.81,.2,6.44,1.15,2.85,4.74-.41,.41,4.34,1.56,1.97,4.4-.54,.2,1.36-1.36,2.37,.95,1.02,2.3-.07,1.63,.81,2.3,.88,.68,.81,1.56-.2,2.57,1.56,1.02,1.42,2.71,.07,3.46,1.22,.27,.88,3.12-1.76,5.29-1.02,.54,1.02-2.3,3.05-2.44,2.03-.14,4,1.29,2.37,3.39,2.03,.41,1.97,1.76,.34,4.07-.54,.88-.75,1.15,0,1.9s.34,2.37-.61,3.32c-.95,.95,.54,1.36,1.29,1.42s.2,1.76-.61,2.1,1.22,0,1.69,1.15c.47,1.15,.41,3.32-1.97,4.81,2.24-1.76,3.52,.14,3.32,2.3-.2,2.17-1.22,2.57-2.78,3.39s-3.12,4.34-.88,6.71"/>
        <path class="cls-2" d="M8.68,121.14c-2.09-.95-3.98-.25-5.5,1.45-1.52,1.71-1.52,2.97,.13,3.29,1.64,.32,1.33,.57,.82,1.58-.51,1.01-1.33,1.77,1.07,2.59,.89,.25,.44,.82-1.39,1.52-1.83,.7-3.16,4.36,.44,4.11,1.01-.19-.06,.51-1.39,1.33s-3.35,4.05-.89,4.05c1.26,0,2.15,.06,2.15,.06-2.02,3.79-.44,8.22,4.24,9.36"/>
        <path class="cls-2" d="M17.15,150.08c-2.99-.71-2.92-3.18-2.14-4.22,.78-1.04,2.92-3.38,3.18-.65,.13,.91-.97-1.04-.84-2.6s2.34-5.07,4.68-3.77c.78,.58-1.04,1.17-.97-1.3,.06-2.47,3.83-5,5.26-2.14-.52-2.4-.39-5.33,3.18-5.2,2.92,.13,4.68,3.96,1.3,7.34,1.49-1.56,5.33-.13,3.77,3.05-.71,1.49-1.82,1.23-1.17,.52,.65-.71,3.18-1.04,5.2-.39,2.01,.65,.45,2.79-.19,3.12s-.19-1.04,1.56-1.04,3.96,1.36,2.53,3.38c1.43-1.17,3.31-1.95,2.27,3.83"/>
        <path class="cls-2" d="M28.91,148.45c1.62-1.17,3.05-2.01,3.77-.84s3.12-.97,4.74,1.62"/>
        <path class="cls-2" d="M11.28,135.64c-.41,.81-1.22,.41-1.08-1.15,.14-1.56,.68-3.52,2.3-3.18s4,1.29,5.08,.27,.95-3.05-.34-3.25c-1.29-.2-1.97,.2-1.83-.68,.14-.88-.47-2.51-.88-3.25s-.14-1.49,1.63-1.36c1.76,.14,2.1,.07,2.1,.07l.07-1.76"/>
        <path class="cls-2" d="M25.71,120.87c-.34-1.76-.14-4.68,3.52-4.68,1.56-.14,2.57,.88,2.57,.88,.95-1.56,1.83-1.36,2.91-.34s2.24,2.51,1.56,3.32-1.95,.66-2.37,.14c-.27-.34,2.98-.27,4.27,.34s2.44,1.22,.47,2.37c-1.97,1.15-2.98,3.25-1.63,3.32,1.36,.07,2.44-1.36,3.86-.07,.81,.81-.2,2.51-.2,2.51"/>
        <path class="cls-2" d="M24.83,110.3c-1.42-2.1-3.93-2.24-5.56-1.83-1.63,.41-1.63,1.42,.2,2.37,1.83,.95,3.25,1.49,2.78,2.1s-5.01,.2-5.01,.2c0,0,1.22-2.37-.41-2.64-1.63-.27-4.54,2.57-.41,5.69"/>
        <line class="cls-2" x1="20.7" y1="101.08" x2="20.9" y2="99.79"/>
        <path class="cls-2" d="M20.7,100.4c1.42,.07,3.86-1.08,2.44-2.37-1.42-1.29-3.52-1.63-5.83-.88-.54-1.42,0-3.39,1.56-3.32s2.44-.2,3.18-.88"/>
        <path class="cls-2" d="M27.27,91.05c1.97-.88,5.96,.54,4.68,3.46-.61,1.08-1.36,1.08-.95,.81s2.51,0,2.78,1.69c.27,1.69-1.02,2.85-2.03,3.66s-.41-1.56,1.83-.68c2.24,.88,.14,4.47-.88,5.35,.47-1.08,2.98-1.69,3.66,0s-.27,3.05-1.02,2.98-1.15-2.17,2.17-2.1c2.17,.07,1.22,2.71,1.22,2.71"/>
        <path class="cls-2" d="M27.81,80.21h-2.51c2.44,.95,2.44,3.66,1.02,4.74-1.08,.81-1.02,.07-.68-.07s2.17,.47,1.42,1.9-2.51,.54-1.83-.14c.34-.14,.75-.14,.75-.14"/>
      </g>
      <line class="cls-3" x1="265.56" y1="133.66" x2="270.47" y2="133.66"/>
      <line class="cls-3" x1="267.7" y1="133.7" x2="267.7" y2="137.17"/>
      <g>
        <line class="cls-3" x1="227.49" y1="133.6" x2="240.83" y2="133.6"/>
        <line class="cls-3" x1="229.61" y1="133.7" x2="229.61" y2="137.17"/>
        <line class="cls-3" x1="238.71" y1="133.7" x2="238.71" y2="137.17"/>
      </g>
      <g>
        <line class="cls-3" x1="190.56" y1="133.6" x2="203.91" y2="133.6"/>
        <line class="cls-3" x1="192.68" y1="133.7" x2="192.68" y2="137.17"/>
        <line class="cls-3" x1="201.78" y1="133.7" x2="201.78" y2="137.17"/>
      </g>
      <line class="cls-3" x1="59.84" y1="133.66" x2="52.14" y2="133.66"/>
      <line class="cls-3" x1="57.91" y1="133.7" x2="57.91" y2="137.17"/>
      <g>
        <line class="cls-3" x1="97.99" y1="133.6" x2="84.64" y2="133.6"/>
        <line class="cls-3" x1="95.86" y1="133.7" x2="95.86" y2="137.17"/>
        <line class="cls-3" x1="86.77" y1="133.7" x2="86.77" y2="137.17"/>
      </g>
      <g>
        <line class="cls-3" x1="133.6" y1="133.6" x2="120.25" y2="133.6"/>
        <line class="cls-3" x1="131.47" y1="133.7" x2="131.47" y2="137.17"/>
        <line class="cls-3" x1="122.38" y1="133.7" x2="122.38" y2="137.17"/>
      </g>
      <line class="cls-3" x1="263.42" y1="137.13" x2="263.42" y2="141.8"/>
      <line class="cls-3" x1="255.01" y1="137.13" x2="255.01" y2="141.8"/>
      <line class="cls-3" x1="246.61" y1="137.13" x2="246.61" y2="141.8"/>
      <line class="cls-3" x1="238.21" y1="137.13" x2="238.21" y2="141.8"/>
      <line class="cls-3" x1="229.81" y1="137.13" x2="229.81" y2="141.8"/>
      <line class="cls-3" x1="221.35" y1="137.13" x2="221.35" y2="141.8"/>
      <line class="cls-3" x1="212.95" y1="137.13" x2="212.95" y2="141.8"/>
      <line class="cls-3" x1="204.55" y1="137.13" x2="204.55" y2="141.8"/>
      <line class="cls-3" x1="196.09" y1="137.13" x2="196.09" y2="141.8"/>
      <line class="cls-3" x1="187.69" y1="137.13" x2="187.69" y2="141.8"/>
      <line class="cls-3" x1="110.07" y1="137.13" x2="110.07" y2="141.8"/>
      <line class="cls-3" x1="118.58" y1="137.13" x2="118.58" y2="141.8"/>
      <line class="cls-3" x1="126.96" y1="137.13" x2="126.96" y2="141.8"/>
      <line class="cls-3" x1="135.34" y1="137.13" x2="135.34" y2="141.8"/>
      <line class="cls-3" x1="101.67" y1="137.13" x2="101.67" y2="141.8"/>
      <line class="cls-3" x1="93.3" y1="137.13" x2="93.3" y2="141.8"/>
      <line class="cls-3" x1="84.84" y1="137.13" x2="84.84" y2="141.8"/>
      <line class="cls-3" x1="76.49" y1="137.13" x2="76.49" y2="141.8"/>
      <line class="cls-3" x1="68.04" y1="137.13" x2="68.04" y2="141.8"/>
      <line class="cls-3" x1="59.58" y1="137.13" x2="59.58" y2="141.8"/>
      <line class="cls-3" x1="51.12" y1="137.13" x2="51.12" y2="141.8"/>
      <line class="cls-3" x1="42.67" y1="137.13" x2="42.67" y2="141.8"/>
      <line class="cls-3" x1="34.27" y1="137.13" x2="34.27" y2="141.8"/>
      <path class="cls-3" d="M.07,153.92c5.05-1.66,9.23-1.37,10.89-2.02s3.89-.29,5.91,.07c2.02,.36,8.58-.94,10.89-1.59,2.31-.65,6.2,0,8.65,.79,2.45,.79,5.26,.22,10.75-2.09,1.37-.58,2.96-.72,4.76-.22,1.8,.5,6.2-.79,10.24-1.73,4.04-.94,7.07-1.88,19.04-2.31,2.96-.36,19.69-1.66,30.07-1.59"/>
      <path class="cls-3" d="M16.36,157.55c2.41-.28,6.87-.74,8.64-1.76s3.34-2.88,7.34-2.23c3.99,.65,6.04,1.58,6.87,1.11s2.51-1.95,6.69-1.95,8.08,1.39,9.01,.46,3.16-3.62,14.68-3.07"/>
      <line class="cls-3" x1="145.37" y1="137.16" x2="141.26" y2="141.82"/>
      <line class="cls-3" x1="177.97" y1="137.16" x2="182.07" y2="141.82"/>
      <line class="cls-3" x1="142.61" y1="140.37" x2="180.76" y2="140.37"/>
      <line class="cls-3" x1="144.12" y1="138.69" x2="179.23" y2="138.69"/>
      <path class="cls-3" d="M142.26,141.77c-27.04,0-54.95,6.38-119.18,22.74"/>
      <path class="cls-3" d="M174.59,141.77c27.04,0,92.16,10.54,125.62,24.5"/>
      <polyline class="cls-3" points="169.41 137.17 169.41 112.26 153.88 112.26 153.88 137.17"/>
      <line class="cls-3" x1="169.41" y1="115.08" x2="153.88" y2="115.08"/>
      <rect class="cls-3" x="155.57" y="116.86" width="4.41" height="18.58"/>
      <rect class="cls-1" x="155.57" y="125.57" width="4.41" height="1.29"/>
      <rect class="cls-3" x="163.27" y="116.86" width="4.41" height="18.58"/>
      <rect class="cls-1" x="163.27" y="125.57" width="4.41" height="1.29"/>
      <line class="cls-3" x1="161.65" y1="115.08" x2="161.65" y2="137.17"/>
      <path class="cls-3" d="M164.91,112.26c0-1.8-1.46-3.27-3.27-3.27s-3.27,1.46-3.27,3.27"/>
      <path class="cls-3" d="M153.88,112.29c0-5.3,3.48-8.3,7.77-8.3s7.77,3,7.77,8.3"/>
      <line class="cls-3" x1="155.99" y1="106.32" x2="159.49" y2="109.81"/>
      <line class="cls-3" x1="167.23" y1="106.32" x2="163.73" y2="109.81"/>
      <line class="cls-3" x1="161.65" y1="108.99" x2="161.65" y2="103.99"/>
      <path class="cls-1" d="M156.43,122.29h.22v-1.99h-.22v-.41h1v.41h-.19v.68h1.05v-.68h-.22v-.41h1.06v.41h-.25v1.99h.23v.4h-1.04v-.4h.22v-.7h-1.05v.7h.19v.4h-1v-.4Z"/>
      <path class="cls-1" d="M164.13,122.29h.22v-1.99h-.22v-.41h1v.41h-.19v.68h1.05v-.68h-.22v-.41h1.06v.41h-.25v1.99h.23v.4h-1.04v-.4h.22v-.7h-1.05v.7h.19v.4h-1v-.4Z"/>
      <g>
        <path class="cls-1" d="M43.87,88.62v-.04c0-.36,.68-.38,.68-1.06v-10.82c0-.68-.68-.7-.68-1.06v-.04c0-.15,.15-.23,.38-.23h2.37c.23,0,.38,.08,.38,.23v.04c0,.36-.72,.38-.72,1.06l-.02,4.86h7.46l-.02-4.86c0-.68-.68-.7-.68-1.06v-.04c0-.15,.15-.23,.38-.23h2.37c.25,0,.4,.08,.4,.23v.04c0,.36-.74,.38-.74,1.06v10.82c0,.68,.74,.7,.74,1.06v.04c0,.15-.15,.23-.4,.23h-2.37c-.23,0-.38-.08-.38-.23v-.04c0-.36,.68-.38,.68-1.06l.02-5.12h-7.44v5.12c0,.68,.72,.7,.72,1.06v.04c0,.15-.15,.23-.38,.23h-2.37c-.23,0-.38-.08-.38-.23Z"/>
        <path class="cls-1" d="M59.75,82.07c0-3.93,2.71-6.89,6.62-6.89s6.58,3.21,6.58,7-2.79,6.85-6.45,6.85c-4,0-6.76-3.3-6.76-6.96Zm11.5,1.25c0-4.02-2.22-7.33-5.47-7.33-2.56,0-4.33,2.13-4.33,4.92,0,3.91,2.22,7.31,5.46,7.31,2.54,0,4.33-2.33,4.33-4.9Z"/>
        <path class="cls-1" d="M91.87,88.58v.04c0,.15-.15,.23-.4,.23h-2.33c-.23,0-.38-.08-.38-.23v-.04c0-.36,.78-.38,.63-1.12l-1.67-9.47-3.81,10.44c-.11,.27-.23,.4-.49,.4-.25,0-.4-.11-.51-.38l-3.85-10.68-1.63,9.7c-.13,.72,.72,.76,.72,1.12v.04c0,.15-.15,.23-.38,.23h-1.73c-.23,0-.38-.08-.38-.23v-.04c0-.36,.63-.4,.76-1.12l1.84-10.72c.11-.66-.63-.68-.63-1.08v-.04c0-.15,.11-.25,.32-.25h1.25c.36,0,.63,.17,.74,.49l3.7,10.72,3.81-10.74c.11-.3,.32-.47,.68-.47h1.35c.15,0,.28,.08,.28,.21v.06c0,.38-.8,.44-.65,1.25l1.97,10.57c.15,.74,.78,.76,.78,1.12Z"/>
        <path class="cls-1" d="M95.15,88.62v-.04c0-.36,.7-.36,.7-1.08v-10.78c0-.72-.7-.74-.7-1.08v-.06c0-.13,.13-.21,.34-.21h8.05c.3,0,.42,.15,.47,.42l.45,1.88c.06,.26-.04,.38-.23,.38h-.1c-.59,0-1.04-1.9-2.03-1.9h-4.02c-.34,0-.53,.19-.53,.64v4.76h3.45c.72,0,.7-1.12,1.1-1.12h.08c.15,0,.25,.11,.25,.32v2.33c0,.19-.1,.32-.25,.32h-.08c-.4,0-.38-1.08-1.1-1.08h-3.45l-.02,4.91c0,.44,.23,.82,.7,.82h4.46c1.01,0,1.33-1.95,1.99-1.95h.11c.17,0,.27,.17,.23,.38l-.46,1.92c-.06,.28-.19,.44-.49,.44h-8.54c-.23,0-.4-.08-.4-.23Z"/>
        <path class="cls-1" d="M119.12,85.15c0,2.37-2.16,3.7-5.18,3.7h-5.2c-.23,0-.38-.08-.38-.23v-.06c0-.34,.68-.38,.68-1.04v-10.82c0-.66-.68-.7-.68-1.06v-.04c0-.15,.15-.23,.38-.23h4.14c3.09,0,4.93,1.4,4.93,3.36,0,1.46-.99,2.52-2.56,2.88,2.5,.32,3.87,1.65,3.87,3.53Zm-8.37-4.56c0,.44,.3,.72,.74,.72h1.97c1.69,0,2.79-.97,2.79-2.3,0-1.8-1.35-2.87-3.42-2.87l-1.5,.02c-.34,0-.57,.17-.57,.63l-.02,3.8Zm6.6,4.84c0-1.82-1.5-3.34-4.35-3.34h-2.24v5.07c0,.55,.32,.91,.8,.91h2.22c2.18,0,3.57-.85,3.57-2.64Z"/>
        <path class="cls-1" d="M133.67,88.58v.04c0,.15-.15,.23-.38,.23h-2.64c-.23,0-.38-.08-.38-.23v-.04c0-.36,.82-.36,.38-1.06l-2.85-3.93c-.15,.02-.3,.02-.47,.02l-2.28,.04v3.87c0,.68,.74,.7,.74,1.06v.04c0,.15-.15,.23-.38,.23h-2.39c-.23,0-.38-.08-.38-.23v-.04c0-.36,.68-.38,.68-1.06v-10.82c0-.68-.68-.7-.68-1.06v-.04c0-.15,.15-.23,.38-.23h3.89c3.25,0,5.71,1.31,5.73,4.18,0,1.73-1.12,3.19-3.21,3.78l3.04,4.19c.51,.72,1.2,.7,1.2,1.06Zm-2.79-8.79c0-2.5-1.94-3.64-4.06-3.64h-1.27c-.34,0-.49,.25-.49,.64v5.16c0,.63,.28,.89,.8,.89h1.31c2.2,0,3.72-1.14,3.72-3.06Z"/>
        <path class="cls-1" d="M136.74,88.58c0-.34,.68-.36,.68-1.04v-10.84c0-.68-.68-.7-.68-1.06v-.04c0-.15,.15-.23,.38-.23h2.37c.23,0,.38,.08,.38,.23v.04c0,.36-.72,.38-.72,1.06v10.84c0,.68,.72,.7,.72,1.04v.04c0,.15-.15,.23-.38,.23h-2.37c-.23,0-.38-.08-.38-.23v-.04Z"/>
        <path class="cls-1" d="M143.91,88.62v-.04c0-.36,.7-.4,.7-1.06v-10.82c0-.68-.7-.7-.7-1.06v-.04c0-.15,.17-.23,.4-.23h4.16c4.19,0,7.67,2.66,7.67,6.62,0,4.29-3.07,6.85-6.98,6.85h-4.84c-.23,0-.4-.08-.4-.23Zm5.12-.55c2.9,0,5.33-1.97,5.33-5.46,0-3.95-3-6.45-6.21-6.45h-1.33c-.3,0-.53,.19-.53,.61v10.27c0,.66,.34,1.04,.89,1.04h1.84Z"/>
        <path class="cls-1" d="M159.36,82.17c0-4.19,2.81-6.96,6.36-6.96,3.21,0,5.24,2.11,5.24,3.49,0,.49-.32,.82-.82,.82-1.42,0-1.46-3.53-4.91-3.53-2.3,0-4.18,2.22-4.18,5.16,0,3.85,2.56,6.74,5.33,6.74,1.21,0,2.3-.34,2.96-.82v-3.28c0-.76-1.29-.72-1.29-1.04v-.08c0-.17,.17-.27,.4-.27l3.25,.02c.23,0,.38,.09,.38,.25v.08c0,.32-1.12,.28-1.12,1.04v2.94c0,.4-.11,.61-.49,.91-.99,.82-2.56,1.4-4.53,1.4-3.49,0-6.57-3.15-6.57-6.87Z"/>
        <path class="cls-1" d="M175.31,88.62v-.04c0-.36,.7-.36,.7-1.08v-10.78c0-.72-.7-.74-.7-1.08v-.06c0-.13,.13-.21,.34-.21h8.05c.3,0,.42,.15,.47,.42l.45,1.88c.06,.26-.04,.38-.23,.38h-.1c-.59,0-1.04-1.9-2.03-1.9h-4.02c-.34,0-.53,.19-.53,.64v4.76h3.45c.72,0,.7-1.12,1.1-1.12h.08c.15,0,.25,.11,.25,.32v2.33c0,.19-.1,.32-.25,.32h-.08c-.4,0-.38-1.08-1.1-1.08h-3.45l-.02,4.91c0,.44,.23,.82,.7,.82h4.46c1.01,0,1.33-1.95,1.99-1.95h.11c.17,0,.27,.17,.23,.38l-.46,1.92c-.06,.28-.19,.44-.49,.44h-8.54c-.23,0-.4-.08-.4-.23Z"/>
        <path class="cls-1" d="M194.57,88.62v-.04c0-.36,.7-.36,.7-1.08v-10.78c0-.72-.7-.74-.7-1.08v-.06c0-.13,.13-.21,.34-.21h8.05c.3,0,.42,.15,.47,.42l.45,1.88c.06,.26-.04,.38-.23,.38h-.1c-.59,0-1.04-1.9-2.03-1.9h-4.02c-.34,0-.53,.19-.53,.64v4.76h3.45c.72,0,.7-1.12,1.1-1.12h.08c.15,0,.25,.11,.25,.32v2.33c0,.19-.1,.32-.25,.32h-.08c-.4,0-.38-1.08-1.1-1.08h-3.45l-.02,4.91c0,.44,.23,.82,.7,.82h4.46c1.01,0,1.33-1.95,1.99-1.95h.11c.17,0,.27,.17,.23,.38l-.46,1.92c-.06,.28-.19,.44-.49,.44h-8.54c-.23,0-.4-.08-.4-.23Z"/>
        <path class="cls-1" d="M207.26,85.7c0-.44,.25-.76,.72-.76,1.37,.06,.89,3.36,4.71,3.36,1.8,0,3.04-1.04,3.04-2.54,0-4.73-8.1-1.16-8.1-6.85,0-2.11,1.71-3.7,4.73-3.7,3.23,0,4.91,1.78,4.91,3.09,0,.45-.27,.76-.78,.76-1.42,0-.7-3.11-4.19-3.11-1.92,0-2.94,1.12-2.94,2.56,0,4.42,8.12,1.12,8.12,6.85,0,2.28-2.2,3.68-4.86,3.68-3.72,0-5.35-2.18-5.35-3.34Z"/>
        <path class="cls-1" d="M223.86,88.62v-.04c0-.36,.7-.38,.7-1.06v-11.33h-2.58c-.97,0-1.08,2.05-1.63,2.05h-.17c-.19,0-.29-.11-.25-.38l.3-2.07c.04-.27,.17-.42,.47-.42h9.43c.3,0,.44,.15,.49,.42l.42,2.09c.06,.25-.06,.36-.23,.36h-.19c-.55,0-.8-2.05-1.75-2.05h-2.62v11.33c0,.68,.74,.7,.74,1.06v.04c0,.15-.15,.23-.4,.23h-2.37c-.23,0-.38-.08-.38-.23Z"/>
        <path class="cls-1" d="M244.2,88.58v.04c0,.15-.13,.23-.36,.23h-2.68c-.23,0-.36-.08-.36-.23v-.04c0-.36,.89-.4,.65-1.06l-.91-2.24h-6.15l-.84,2.24c-.26,.66,.65,.7,.65,1.06v.04c0,.15-.15,.23-.4,.23h-1.8c-.25,0-.38-.08-.38-.23v-.04c0-.36,.63-.34,.89-1.06l4.21-10.76c.23-.57-.59-.82-.59-1.12v-.06c0-.11,.08-.21,.27-.21h1.1c.46,0,.7,.17,.89,.63l4.9,11.52c.3,.7,.91,.7,.91,1.06Zm-3.99-4.12l-2.85-7.04-2.66,7.04h5.5Z"/>
        <path class="cls-1" d="M248.53,88.62v-.04c0-.36,.7-.38,.7-1.06v-11.33h-2.58c-.97,0-1.08,2.05-1.63,2.05h-.17c-.19,0-.29-.11-.25-.38l.3-2.07c.04-.27,.17-.42,.47-.42h9.43c.3,0,.44,.15,.49,.42l.42,2.09c.06,.25-.06,.36-.23,.36h-.19c-.55,0-.8-2.05-1.75-2.05h-2.62v11.33c0,.68,.74,.7,.74,1.06v.04c0,.15-.15,.23-.4,.23h-2.37c-.23,0-.38-.08-.38-.23Z"/>
        <path class="cls-1" d="M258.85,88.62v-.04c0-.36,.7-.36,.7-1.08v-10.78c0-.72-.7-.74-.7-1.08v-.06c0-.13,.13-.21,.34-.21h8.05c.3,0,.42,.15,.47,.42l.45,1.88c.06,.26-.04,.38-.23,.38h-.1c-.59,0-1.04-1.9-2.03-1.9h-4.02c-.34,0-.53,.19-.53,.64v4.76h3.45c.72,0,.7-1.12,1.1-1.12h.08c.15,0,.25,.11,.25,.32v2.33c0,.19-.1,.32-.25,.32h-.08c-.4,0-.38-1.08-1.1-1.08h-3.45l-.02,4.91c0,.44,.23,.82,.7,.82h4.46c1.01,0,1.33-1.95,1.99-1.95h.11c.17,0,.27,.17,.23,.38l-.46,1.92c-.06,.28-.19,.44-.49,.44h-8.54c-.23,0-.4-.08-.4-.23Z"/>
        <path class="cls-1" d="M271.54,85.7c0-.44,.25-.76,.72-.76,1.37,.06,.89,3.36,4.71,3.36,1.8,0,3.04-1.04,3.04-2.54,0-4.73-8.1-1.16-8.1-6.85,0-2.11,1.71-3.7,4.73-3.7,3.23,0,4.91,1.78,4.91,3.09,0,.45-.27,.76-.78,.76-1.42,0-.7-3.11-4.19-3.11-1.92,0-2.94,1.12-2.94,2.56,0,4.42,8.12,1.12,8.12,6.85,0,2.28-2.2,3.68-4.86,3.68-3.72,0-5.35-2.18-5.35-3.34Z"/>
      </g>
      <g>
        <path class="cls-1" d="M170.76,14.79c-.44-.44-2.18,0-3.62,1.37-1.45,1.36-2.07,3.05-1.64,3.5,.54,.57,2.15-.07,3.59-1.43,1.45-1.36,2.36-2.75,1.68-3.44Zm-2.07,3.02c-1.26,1.18-2.49,1.93-2.74,1.65-.33-.35,.56-1.45,1.82-2.64,1.26-1.18,2.46-2.01,2.74-1.65,.29,.37-.56,1.45-1.82,2.64Z"/>
        <path class="cls-1" d="M165.07,16.16c-.31-.3-1.48-.14-2.59,.93,.38-.46,.96-1.03,1.32-1.37,1.31-1.22,2.67-2.01,3.02-1.57,.07,.09,.15,.19,.12,.34l.47,.03c.03-.33-.04-.49-.26-.71-.55-.54-2.72,.04-4.62,1.57-2.05,1.66-2.33,3.76-1.78,4.29,.5,.48,2.11,.54,3.8-1.19,1.07-1.13,.95-1.91,.53-2.32Zm-1.61,1.93c-.97,.89-1.78,1.69-2.29,1.31-.36-.84,2.85-3.4,3.42-2.99,.25,.14-.18,.81-1.13,1.68Z"/>
        <path class="cls-1" d="M160.21,16.16c-.31-.3-1.48-.14-2.59,.93,.38-.46,.96-1.03,1.32-1.37,1.31-1.22,2.67-2.01,3.02-1.57,.07,.09,.15,.19,.12,.34l.47,.03c.03-.33-.04-.49-.26-.71-.55-.54-2.72,.04-4.62,1.57-2.05,1.66-2.33,3.76-1.78,4.29,.5,.48,2.11,.54,3.8-1.19,1.07-1.13,.95-1.91,.53-2.32Zm-1.61,1.93c-.97,.89-1.78,1.69-2.29,1.31-.36-.84,2.85-3.4,3.42-2.99,.25,.14-.18,.81-1.13,1.68Z"/>
        <path class="cls-1" d="M158.07,13.99c-.61-.53-1.98,.13-5.41,2.21l.08,.36s1.6-1.04,2.69-1.27c-2.03,1.37-4.45,3.63-3.15,4.57,1.4-1.7,4.57-5.06,5.79-5.87Z"/>
      </g>
    </g>
  </g>
</svg>